<svg width="48" height="48" viewBox="0 0 48 48" fill="none" xmlns="http://www.w3.org/2000/svg">
<path d="M15.4306 15.2603L7.28997 23.4009C6.74079 23.9501 6.74079 24.8405 7.28997 25.3896L14.64 32.7396C15.1891 33.2888 16.0795 33.2889 16.6287 32.7396C17.1779 32.1905 17.1779 31.3001 16.6287 30.7509L10.2731 24.3952L17.4193 17.249C17.9685 16.6998 17.9685 15.8094 17.4193 15.2603C16.8701 14.7111 15.9797 14.7111 15.4306 15.2603V15.2603Z" fill="black"/>
<path d="M33.36 15.2603C32.8109 14.7112 31.9205 14.7112 31.3713 15.2603C30.8221 15.8095 30.8221 16.6999 31.3713 17.2491L37.7269 23.6048L30.5807 30.751C30.0315 31.3002 30.0315 32.1906 30.5807 32.7398C31.1298 33.2889 32.0202 33.289 32.5694 32.7398L40.71 24.5992C41.2592 24.05 41.2592 23.1596 40.71 22.6104L33.36 15.2603Z" fill="black"/>
<path d="M28.1615 12.1461C27.4289 11.8873 26.6259 12.2715 26.3672 13.0038L18.9311 34.0598C18.6726 34.7921 19.0565 35.5954 19.7889 35.854C20.521 36.1126 21.3245 35.7288 21.5832 34.9963L29.0192 13.9404C29.2778 13.208 28.8938 12.4046 28.1615 12.1461V12.1461Z" fill="black"/>
<path d="M41.2065 6.44072H6.7935C3.04753 6.44072 0 9.48825 0 13.2342V34.7658C0 38.5118 3.04753 41.5593 6.7935 41.5593H41.2065C44.9525 41.5593 48 38.5118 48 34.7658V13.2342C48 9.48825 44.9525 6.44072 41.2065 6.44072ZM45.1875 34.7658C45.1875 36.9609 43.4017 38.7468 41.2065 38.7468H6.7935C4.59834 38.7468 2.8125 36.9609 2.8125 34.7658V13.2342C2.8125 11.0391 4.59834 9.25322 6.7935 9.25322H41.2065C43.4017 9.25322 45.1875 11.0391 45.1875 13.2342V34.7658Z" fill="black"/>
</svg>
