<svg width="48" height="48" viewBox="0 0 48 48" fill="none" xmlns="http://www.w3.org/2000/svg">
<g clip-path="url(#clip0)">
<path d="M48 15.196C47.912 14.668 47.84 14.256 47.28 13.914C24.382 0.331993 24.706 -0.680007 23.22 0.217993C5.86599 11.006 1.03599 13.412 0.341992 14.252C-0.288008 14.898 -7.77172e-06 15.888 -7.77172e-06 30.848C-0.0420078 32.55 15.486 41.772 23.038 47.656C23.704 48.13 24.542 48.054 25.044 47.598C47.492 31.686 48.038 32.326 48 30.848C48 30.848 47.976 14.994 48 15.196ZM45 28.178L37.248 23.46L45 18.066V28.178ZM34.446 21.754L25.5 16.31V4.16999L43.752 15.28L34.446 21.754ZM24 29.02L16.248 23.626L24 18.908L31.752 23.626L24 29.02ZM22.5 4.16799V16.316C19.022 18.474 16.082 20.276 13.598 21.784L4.24799 15.28L22.5 4.16799ZM10.786 23.484C7.03799 25.738 4.58999 27.17 2.99999 28.124V18.066L10.786 23.484ZM13.446 25.332L22.5 31.63V43.628L4.24799 30.93L13.446 25.332ZM25.5 43.63V31.632L34.554 25.334L43.752 30.932L25.5 43.63Z" fill="black"/>
</g>
<defs>
<clipPath id="clip0">
<rect width="48" height="48" fill="white"/>
</clipPath>
</defs>
</svg>
