<svg width="48" height="48" viewBox="0 0 48 48" fill="none" xmlns="http://www.w3.org/2000/svg">
<path d="M24 0C10.8094 0 0 10.9032 0 24.0938C0 37.2078 10.7109 48 24 48C37.2726 48 48 37.2239 48 24.0938C48 10.9032 37.1906 0 24 0ZM28.2188 44.7656C26.8689 45.0469 25.4344 45.1875 24 45.1875C22.5656 45.1875 21.1311 45.0469 19.7812 44.7656V38.1844C19.7812 36.6094 20.2031 36.0469 20.7656 35.2874C21.052 34.96 21.2249 34.6663 22.5092 32.7283L20.3438 32.3906C14.7748 31.5751 12.5812 28.678 11.7092 26.428C10.5842 23.4188 11.1749 19.6498 13.2001 17.2595C13.5095 16.8937 13.7626 16.2748 13.5377 15.6281C13.1155 14.3342 13.1719 12.2812 13.4531 11.4935C14.9443 11.7067 16.4777 12.7749 17.7565 13.5469C18.3457 13.8907 18.6548 13.7999 18.9375 13.8281C19.9651 13.6143 21.568 13.0968 24.0282 13.0968C25.5469 13.0968 27.1501 13.3217 28.7252 13.7717C29.0068 13.7651 29.4595 14.0046 30.2439 13.5469C31.5806 12.7324 33.0619 11.7008 34.5469 11.4935C34.8281 12.2812 34.8845 14.3342 34.4626 15.6281C34.2374 16.2748 34.4905 16.8937 34.8003 17.2595C36.8251 19.6501 37.4158 23.4188 36.2908 26.428C35.4188 28.678 33.2252 31.5751 27.6562 32.3906L25.4908 32.7283C26.8184 34.7314 26.9583 34.9717 27.2347 35.2874C27.7969 36.0469 28.2188 36.6094 28.2188 38.1844V44.7656ZM31.0312 43.9501V38.1844C31.0312 36.5812 30.6936 35.5126 30.2435 34.7249C34.5187 33.572 37.5564 31.0404 38.9062 27.4124C40.3407 23.5876 39.694 19.0312 37.303 15.8811C37.7252 13.9969 37.7252 10.9874 36.7126 9.58118C36.2626 8.96265 35.6437 8.625 34.8563 8.625C34.8281 8.625 34.8281 8.625 34.8281 8.625C32.6473 8.74292 30.9309 9.84119 29.0907 10.9592C27.4032 10.5092 25.6875 10.2843 23.9718 10.2843C22.2283 10.2843 20.4844 10.5374 18.9379 10.9592C17.0006 9.79102 15.3007 8.73999 13.0594 8.625C12.3563 8.625 11.7374 8.96265 11.2874 9.58118C10.2751 10.9874 10.2751 13.9969 10.697 15.8811C8.30603 19.0312 7.6593 23.6155 9.09375 27.4124C10.4436 31.0404 13.4813 33.572 17.7565 34.7249C17.4075 35.3353 17.1313 36.123 17.0226 37.1891C16.1591 37.4868 15.4102 37.5839 14.7136 37.3792C13.979 37.162 13.4066 36.6716 12.9093 35.8352C11.7924 33.9587 9.88989 32.4269 7.72375 32.6261L7.97095 35.4276C8.974 35.3357 9.97229 36.397 10.4908 37.2719C11.3463 38.7125 12.4988 39.6573 13.9171 40.0763C14.97 40.3865 15.9324 40.3792 16.9688 40.158V43.9501C8.7843 41.0812 2.8125 33.2626 2.8125 24.0938C2.8125 12.4501 12.3563 2.8125 24 2.8125C35.6437 2.8125 45.1875 12.4501 45.1875 24.0938C45.1875 33.2626 39.2157 41.0812 31.0312 43.9501Z" fill="black"/>
</svg>
