<svg width="38" height="38" viewBox="0 0 38 38" fill="none" xmlns="http://www.w3.org/2000/svg">
<path d="M19 0C8.55748 0 0 8.6317 0 19.0742C0 29.4561 8.47949 38 19 38C29.5075 38 38 29.4689 38 19.0742C38 8.6317 29.4425 0 19 0ZM22.3398 35.4395C21.2712 35.6621 20.1356 35.7734 19 35.7734C17.8644 35.7734 16.7288 35.6621 15.6602 35.4395V30.2294C15.6602 28.9824 15.9941 28.5371 16.4395 27.9358C16.6662 27.6766 16.803 27.4441 17.8197 25.9099L16.1055 25.6426C11.6967 24.9969 9.9601 22.7034 9.26981 20.9221C8.37918 18.5399 8.84682 15.5561 10.4501 13.6638C10.695 13.3742 10.8954 12.8842 10.7174 12.3722C10.3831 11.3479 10.4277 9.72266 10.6504 9.09904C11.8309 9.26778 13.0448 10.1135 14.0572 10.7246C14.5237 10.9968 14.7684 10.9249 14.9922 10.9473C15.8057 10.778 17.0747 10.3683 19.0223 10.3683C20.2246 10.3683 21.4939 10.5463 22.7408 10.9026C22.9637 10.8974 23.3221 11.087 23.9431 10.7246C25.0013 10.0798 26.174 9.26314 27.3496 9.09904C27.5723 9.72266 27.6169 11.3479 27.2829 12.3722C27.1046 12.8842 27.305 13.3742 27.5502 13.6638C29.1532 15.5564 29.6208 18.5399 28.7302 20.9221C28.0399 22.7034 26.3033 24.9969 21.8945 25.6426L20.1803 25.9099C21.2312 27.4957 21.3419 27.6859 21.5608 27.9358C22.0059 28.5371 22.3398 28.9824 22.3398 30.2294V35.4395ZM24.5664 34.7938V30.2294C24.5664 28.9601 24.2991 28.1141 23.9428 27.4905C27.3273 26.5779 29.7321 24.5737 30.8008 21.7014C31.9364 18.6736 31.4244 15.0664 29.5315 12.5725C29.8658 11.0809 29.8658 8.69838 29.0642 7.5851C28.7079 7.09543 28.2179 6.82812 27.5946 6.82812C27.5723 6.82812 27.5723 6.82812 27.5723 6.82812C25.8458 6.92148 24.487 7.79094 23.0301 8.67606C21.6942 8.31975 20.3359 8.14174 18.9777 8.14174C17.5974 8.14174 16.2168 8.34207 14.9925 8.67606C13.4588 7.75122 12.113 6.91916 10.3387 6.82812C9.78209 6.82812 9.29213 7.09543 8.93582 7.5851C8.13449 8.69838 8.13449 11.0809 8.46848 12.5725C6.57561 15.0664 6.06361 18.6956 7.19922 21.7014C8.26785 24.5737 10.6727 26.5779 14.0572 27.4905C13.7809 27.9738 13.5623 28.5974 13.4762 29.4414C12.7926 29.6771 12.1997 29.7539 11.6483 29.5918C11.0667 29.4199 10.6136 29.0317 10.2199 28.3695C9.33562 26.884 7.8295 25.6713 6.11464 25.829L6.31033 28.0469C7.10442 27.9741 7.89473 28.8143 8.30525 29.5069C8.9825 30.6474 9.89487 31.3954 11.0177 31.7271C11.8512 31.9726 12.6131 31.9668 13.4336 31.7917V34.7938C6.95424 32.5226 2.22656 26.3329 2.22656 19.0742C2.22656 9.85631 9.78209 2.22656 19 2.22656C28.2179 2.22656 35.7734 9.85631 35.7734 19.0742C35.7734 26.3329 31.0458 32.5226 24.5664 34.7938Z" fill="white"/>
</svg>
