<svg width="58" height="58" viewBox="0 0 58 58" fill="none" xmlns="http://www.w3.org/2000/svg">
<path d="M28.9964 0.603668C12.9848 0.603668 0 13.6392 0 29.7197C0 42.5812 8.3085 53.4924 19.836 57.3458C21.286 57.614 21.8153 56.715 21.8153 55.9429C21.8153 55.2505 21.7899 53.4199 21.7754 50.9912C13.7098 52.7493 12.006 47.087 12.006 47.087C10.6901 43.723 8.787 42.8277 8.787 42.8277C6.15163 41.0224 8.98275 41.0587 8.98275 41.0587C11.8936 41.2653 13.4234 44.0602 13.4234 44.0602C16.0116 48.508 20.213 47.2248 21.866 46.478C22.127 44.5967 22.8774 43.3134 23.7075 42.5848C17.2695 41.8489 10.498 39.3513 10.498 28.1972C10.498 25.018 11.629 22.4189 13.485 20.3817C13.1841 19.6458 12.1909 16.6842 13.7678 12.6785C13.7678 12.6785 16.2038 11.8955 21.7428 15.6619C24.0555 15.0167 26.535 14.694 29.0036 14.6832C31.465 14.6977 33.9481 15.0167 36.2645 15.6655C41.7999 11.8992 44.2322 12.6822 44.2322 12.6822C45.8127 16.6914 44.8195 19.6494 44.5222 20.3853C46.3819 22.4225 47.502 25.0217 47.502 28.2008C47.502 39.3839 40.7232 41.8453 34.2635 42.5667C35.3039 43.4657 36.2319 45.2419 36.2319 47.957C36.2319 51.8503 36.1956 54.9895 36.1956 55.9429C36.1956 56.7223 36.7176 57.6285 38.1894 57.3422C49.6987 53.4852 58 42.5775 58 29.7197C58 13.6392 45.0153 0.603668 28.9964 0.603668Z" fill="black"/>
</svg>
