<svg width="64" height="48" viewBox="0 0 64 48" fill="none" xmlns="http://www.w3.org/2000/svg">
<path d="M5.81861 48H57.4833C60.6917 48 63.3019 45.3896 63.3019 42.1809V5.81886C63.3019 2.61019 60.6917 0 57.4833 0H5.81861C2.61019 0 0 2.61044 0 5.81886V42.1809C0 45.3896 2.61019 48 5.81861 48ZM3.78947 5.81886C3.78947 4.69819 4.6992 3.78947 5.81861 3.78947H57.4833C58.6032 3.78947 59.5124 4.69819 59.5124 5.81886V42.1809C59.5124 43.3018 58.6029 44.2105 57.4833 44.2105H5.81861C4.69895 44.2105 3.78947 43.3018 3.78947 42.1809V5.81886ZM11.3022 41.5306H7.51276V6.63006L31.1778 21.9939C31.4562 22.1745 31.8455 22.1747 32.1246 21.9933L55.7894 6.63006V41.5306H51.9999V13.6083L34.1876 25.1722C33.4317 25.6626 32.5546 25.9215 31.6509 25.9215C30.7473 25.9215 29.8701 25.6626 29.1148 25.1725L11.3022 13.6083V41.5306Z" fill="black"/>
</svg>
