<svg width="53" height="41" viewBox="0 0 53 41" fill="none" xmlns="http://www.w3.org/2000/svg">
<path d="M4.87168 40.1884H48.1283C50.8146 40.1884 53 38.0028 53 35.3163V4.87189C53 2.1854 50.8146 0 48.1283 0H4.87168C2.1854 0 0 2.18561 0 4.87189V35.3163C0 38.0028 2.1854 40.1884 4.87168 40.1884ZM3.17277 4.87189C3.17277 3.9336 3.93444 3.17277 4.87168 3.17277H48.1283C49.066 3.17277 49.8272 3.9336 49.8272 4.87189V35.3163C49.8272 36.2548 49.0658 37.0156 48.1283 37.0156H4.87168C3.93423 37.0156 3.17277 36.2548 3.17277 35.3163V4.87189ZM9.46288 34.7718H6.29011V5.55107L26.1038 18.4145C26.3369 18.5658 26.6629 18.566 26.8966 18.4141L46.7101 5.55107V34.7718H43.5373V11.3936L28.6239 21.0756C27.991 21.4862 27.2566 21.703 26.5 21.703C25.7434 21.703 25.009 21.4862 24.3766 21.0758L9.46288 11.3936V34.7718Z" fill="white"/>
</svg>
