<svg width="58" height="58" viewBox="0 0 58 58" fill="none" xmlns="http://www.w3.org/2000/svg">
<g clip-path="url(#clip0)">
<path d="M53.817 0H4.183C1.87268 0 0 1.87268 0 4.183V53.817C0 56.1273 1.87268 58 4.183 58H53.817C56.1273 58 58 56.1273 58 53.817V4.183C58 1.87268 56.1273 0 53.817 0V0ZM20.5729 43.8398H13.5101V22.5912H20.5729V43.8398ZM17.0417 19.6897H16.9957C14.6257 19.6897 13.0928 18.0582 13.0928 16.0191C13.0928 13.934 14.6726 12.3477 17.0887 12.3477C19.5047 12.3477 20.9915 13.934 21.0376 16.0191C21.0376 18.0582 19.5047 19.6897 17.0417 19.6897ZM46.04 43.8398H38.978V32.4723C38.978 29.6155 37.9554 27.6672 35.3999 27.6672C33.4489 27.6672 32.2869 28.9814 31.7763 30.2501C31.5895 30.7041 31.544 31.3386 31.544 31.9736V43.8398H24.4816C24.4816 43.8398 24.5741 24.5847 24.4816 22.5912H31.544V25.5998C32.4825 24.1519 34.1618 22.0925 37.909 22.0925C42.5557 22.0925 46.04 25.1294 46.04 31.6559V43.8398Z" fill="black"/>
</g>
<defs>
<clipPath id="clip0">
<rect width="58" height="58" fill="white"/>
</clipPath>
</defs>
</svg>
