<svg width="49" height="48" viewBox="0 0 49 48" fill="none" xmlns="http://www.w3.org/2000/svg">
<path d="M6.58983 0C4.80003 0 3.17288 0.650879 1.95254 1.87122C0.650879 3.17288 0 4.79993 0 6.50841C0 8.2982 0.732203 9.92535 1.95254 11.1457C3.17288 12.366 4.88135 13.0982 6.5085 13.0169C6.5085 13.0169 6.58983 13.0169 6.67125 13.0169C8.29839 13.0169 9.84412 12.366 11.0645 11.1457C12.2848 9.92535 13.017 8.2982 13.017 6.50841C13.0983 4.79993 12.3661 3.17278 11.1458 1.95245C9.92545 0.650783 8.2983 0 6.58983 0ZM9.92545 10.0068C9.0305 10.9017 7.81016 11.4712 6.5085 11.3899C5.28816 11.3899 3.9865 10.9017 3.09156 10.0068C2.11528 9.11183 1.62715 7.81016 1.62715 6.5085C1.62715 5.20684 2.11528 3.9865 3.09156 3.01023C3.9865 2.11528 5.20684 1.62715 6.58983 1.62715C7.81016 1.62715 9.0305 2.11528 9.92545 3.01023C10.9017 3.9865 11.3899 5.20684 11.3899 6.5085C11.3899 7.81016 10.9017 9.11183 9.92545 10.0068Z" fill="black"/>
<path d="M9.76272 14.644H3.17289C1.87123 14.644 0.813538 15.7016 0.813538 17.0847V45.5593C0.813538 46.861 1.95255 48 3.25421 48H9.76272C11.0644 48 12.2034 46.861 12.2034 45.6406V17.0847C12.2034 15.783 11.0644 14.644 9.76272 14.644ZM10.5762 45.6406C10.5762 46.0474 10.1694 46.3728 9.76272 46.3728H3.25421C2.8474 46.3728 2.44069 45.966 2.44069 45.5593V17.0847C2.44069 16.6779 2.76608 16.2712 3.17289 16.2712H9.76272C10.1695 16.2712 10.5762 16.678 10.5762 17.0847V45.6406Z" fill="black"/>
<path d="M37.4237 13.8304H35.7152C32.5423 13.8304 29.5322 15.2135 27.5796 17.4101V16.2711C27.5796 15.4576 26.7661 14.644 25.9525 14.644H17.8169C17.0847 14.644 16.1898 15.2949 16.1898 16.1897V46.5354C16.1898 47.4304 17.0847 47.9998 17.8169 47.9998H26.7661C27.4983 47.9998 28.3933 47.4304 28.3933 46.5354V28.9625C28.3933 26.2778 30.3458 24.1625 32.8678 24.1625C34.1695 24.1625 35.3898 24.6507 36.2848 25.5456C37.0983 26.2778 37.4238 27.4168 37.4238 28.8812V46.3728C37.4238 47.1863 38.2373 47.9999 39.0509 47.9999H47.1865C48 47.9999 48.8136 47.1864 48.8136 46.3728V25.3829C48.8135 18.8745 43.8508 13.8304 37.4237 13.8304ZM47.1864 46.2914L47.1051 46.3728H39.1321L39.0508 28.8813C39.0508 26.9288 38.5627 25.4644 37.5051 24.4068C36.2848 23.1864 34.6576 22.5356 32.9491 22.5356C29.5322 22.6169 26.8474 25.383 26.8474 28.9626V46.3728H17.8983V16.2711H25.9525L26.0338 16.3524V21.4779L28.2304 19.2813L28.3118 19.1999C29.9389 16.922 32.7863 15.4576 35.7965 15.4576H37.505C42.9558 15.4576 47.1864 19.8508 47.1864 25.383V46.2914V46.2914Z" fill="black"/>
</svg>
