<svg width="38" height="38" viewBox="0 0 38 38" fill="none" xmlns="http://www.w3.org/2000/svg">
<path d="M5.12999 0C3.73668 0 2.47 0.50669 1.52 1.45669C0.50669 2.47 0 3.73661 0 5.06661C0 6.45991 0.569999 7.7266 1.52 8.6766C2.47 9.6266 3.79999 10.1966 5.06668 10.1333C5.06668 10.1333 5.12999 10.1333 5.19337 10.1333C6.46006 10.1333 7.66337 9.6266 8.61337 8.6766C9.56336 7.7266 10.1334 6.45991 10.1334 5.06661C10.1967 3.73661 9.62667 2.46992 8.67667 1.51992C7.72668 0.506616 6.45999 0 5.12999 0ZM7.72668 7.78999C7.02999 8.48668 6.07999 8.92998 5.06668 8.86668C4.11668 8.86668 3.10338 8.48668 2.40669 7.78999C1.64669 7.0933 1.26669 6.07999 1.26669 5.06668C1.26669 4.05338 1.64669 3.10338 2.40669 2.34338C3.10338 1.64669 4.05338 1.26669 5.12999 1.26669C6.07999 1.26669 7.02999 1.64669 7.72668 2.34338C8.48668 3.10338 8.86667 4.05338 8.86667 5.06668C8.86667 6.07999 8.48668 7.0933 7.72668 7.78999Z" fill="white"/>
<path d="M7.59998 11.4H2.46999C1.45668 11.4 0.633301 12.2233 0.633301 13.3V35.4666C0.633301 36.4799 1.51999 37.3666 2.5333 37.3666H7.59998C8.61329 37.3666 9.49998 36.4799 9.49998 35.5299V13.3C9.49998 12.2866 8.61329 11.4 7.59998 11.4ZM8.23329 35.5299C8.23329 35.8466 7.9166 36.0999 7.59998 36.0999H2.5333C2.21661 36.0999 1.89999 35.7832 1.89999 35.4666V13.3C1.89999 12.9833 2.1533 12.6667 2.46999 12.6667H7.59998C7.91667 12.6667 8.23329 12.9833 8.23329 13.3V35.5299Z" fill="white"/>
<path d="M29.1333 10.7666H27.8033C25.3333 10.7666 22.99 11.8433 21.47 13.5533V12.6666C21.47 12.0333 20.8367 11.3999 20.2033 11.3999H13.87C13.3 11.3999 12.6033 11.9066 12.6033 12.6032V36.2265C12.6033 36.9232 13.3 37.3665 13.87 37.3665H20.8367C21.4067 37.3665 22.1033 36.9232 22.1033 36.2265V22.5465C22.1033 20.4565 23.6233 18.8098 25.5866 18.8098C26.6 18.8098 27.5499 19.1898 28.2466 19.8865C28.8799 20.4565 29.1333 21.3432 29.1333 22.4832V36.0999C29.1333 36.7332 29.7666 37.3666 30.4 37.3666H36.7333C37.3666 37.3666 38 36.7332 38 36.0999V19.7599C37.9999 14.6933 34.1366 10.7666 29.1333 10.7666ZM36.7332 36.0366L36.6699 36.0999H30.4633L30.3999 22.4833C30.3999 20.9633 30.0199 19.8233 29.1966 19C28.2466 18.05 26.98 17.5433 25.65 17.5433C22.99 17.6066 20.9 19.76 20.9 22.5466V36.0999H13.9333V12.6666H20.2033L20.2666 12.7299V16.7199L21.9766 15.0099L22.0399 14.9466C23.3066 13.1733 25.5232 12.0333 27.8666 12.0333H29.1966C33.4399 12.0333 36.7332 15.4533 36.7332 19.76V36.0366V36.0366Z" fill="white"/>
</svg>
